<svg xmlns="http://www.w3.org/2000/svg" width="300" height="104" fill="none"><path fill="#fff" d="M19 56.776h1.488v-5.088h3.122c2.26 0 3.93-1.598 3.93-3.913 0-2.332-1.597-3.857-3.93-3.857H19zm1.488-6.41V45.24h2.994c1.543 0 2.534 1.065 2.534 2.535 0 1.487-.991 2.59-2.534 2.59zM33.821 57.014c2.866 0 4.996-2.149 4.996-5.014s-2.094-5.014-4.977-5.014c-2.847 0-4.996 2.13-4.996 5.014 0 2.902 2.112 5.014 4.977 5.014m0-1.322c-2.038 0-3.49-1.543-3.49-3.692 0-2.094 1.433-3.692 3.49-3.692S37.33 49.888 37.33 52c0 2.13-1.452 3.692-3.509 3.692M42.985 56.776h1.874l2.461-7.751h.11l2.443 7.75h1.874l2.993-9.55h-1.58l-2.332 7.897h-.11l-2.516-7.898h-1.653l-2.535 7.898h-.11l-2.315-7.898h-1.58zM60.632 57.014c2.241 0 3.912-1.267 4.445-3.049h-1.506c-.44 1.12-1.653 1.727-2.92 1.727-1.966 0-3.196-1.267-3.27-3.178h7.788v-.643c0-2.755-1.727-4.885-4.629-4.885-2.608 0-4.683 1.965-4.683 5.014 0 2.865 1.855 5.014 4.775 5.014m-3.214-5.785c.147-1.764 1.524-2.92 3.122-2.92 1.617 0 2.958 1.01 3.086 2.92zM67.748 56.776H69.2v-4.923c0-1.818.974-3.178 2.719-3.178h.79v-1.45h-.809c-1.396 0-2.332.973-2.608 1.781h-.11v-1.782h-1.433zM78.784 57.014c2.241 0 3.912-1.267 4.445-3.049h-1.506c-.44 1.12-1.653 1.727-2.92 1.727-1.966 0-3.196-1.267-3.27-3.178h7.788v-.643c0-2.755-1.727-4.885-4.629-4.885-2.608 0-4.683 1.965-4.683 5.014 0 2.865 1.855 5.014 4.775 5.014M75.57 51.23c.147-1.764 1.525-2.92 3.122-2.92 1.617 0 2.958 1.01 3.086 2.92zM89.923 57.014c2.075 0 3.067-1.396 3.306-1.745h.11v1.507h1.396V43h-1.451v5.767h-.11c-.294-.496-1.36-1.781-3.362-1.781-2.7 0-4.647 2.094-4.647 5.032 0 2.92 1.947 4.996 4.758 4.996m.091-1.304c-2.002 0-3.36-1.45-3.36-3.692 0-2.167 1.358-3.71 3.324-3.71 1.892 0 3.361 1.36 3.361 3.71 0 2.002-1.249 3.692-3.325 3.692M107.824 57.014c2.81 0 4.757-2.075 4.757-4.996 0-2.938-1.947-5.032-4.647-5.032-2.002 0-3.067 1.285-3.361 1.781h-.11V43h-1.451v13.776h1.396v-1.507h.11c.239.35 1.231 1.745 3.306 1.745m-.092-1.304c-2.075 0-3.324-1.69-3.324-3.692 0-2.35 1.469-3.71 3.361-3.71 1.965 0 3.325 1.543 3.325 3.71 0 2.241-1.36 3.692-3.362 3.692M114.721 61h.992c1.561 0 2.314-.735 2.81-2.039l4.555-11.736h-1.635l-2.975 8.081h-.11l-2.958-8.081h-1.616l3.876 10.065-.441 1.157c-.312.826-.845 1.23-1.782 1.23h-.716z"/><g fill="#fff" clip-path="url('#clip0')"><path d="m209.901 50.343 4.125-6.108h6.722l-5.967 8.824 6.155 9.232h-6.718l-4.317-6.506v6.506h-5.577V36.438h5.577zM279.73 49.85v12.436h-5.571V49.983a2.285 2.285 0 0 0-4.57 0v12.303h-5.571V36.438h5.571v8.37a6.37 6.37 0 0 1 3.814-1.267 6.31 6.31 0 0 1 6.327 6.309M195.644 44.236v.892a9.65 9.65 0 0 0-5.25-1.547c-5.355 0-9.697 4.332-9.697 9.676 0 5.343 4.342 9.676 9.702 9.676a9.66 9.66 0 0 0 5.25-1.548v.941h5.572v-18.09zm-4.435 13.733a4.936 4.936 0 0 1-4.94-4.93c0-2.72 2.213-4.928 4.94-4.928a4.936 4.936 0 0 1 4.939 4.929c0 2.72-2.208 4.929-4.939 4.929M235.883 44.236v.892a9.65 9.65 0 0 0-5.251-1.547c-5.355 0-9.696 4.332-9.696 9.676 0 5.343 4.341 9.676 9.696 9.676a9.67 9.67 0 0 0 5.251-1.548v.941h5.572v-18.09zm-4.436 13.733a4.936 4.936 0 0 1-4.94-4.93c0-2.72 2.213-4.928 4.94-4.928a4.936 4.936 0 0 1 4.94 4.929c0 2.72-2.213 4.929-4.94 4.929M249.585 56.446c.025.37.124.685.291.937.178.266.41.483.687.65q.452.268 1.052.395.63.133 1.304.133c1.003 0 1.759-.153 2.248-.449.41-.251.593-.522.593-.877a.76.76 0 0 0-.104-.41c-.04-.063-.148-.196-.45-.364q-.423-.237-1.151-.444a23 23 0 0 0-1.971-.443 20.4 20.4 0 0 1-2.924-.799c-.904-.325-1.689-.73-2.341-1.198-.672-.488-1.21-1.06-1.591-1.7-.395-.666-.597-1.435-.597-2.292 0-.819.197-1.617.587-2.361.391-.74.949-1.39 1.665-1.937.702-.538 1.566-.972 2.564-1.282.988-.31 2.114-.468 3.344-.468 1.279 0 2.45.152 3.477.453 1.043.306 1.942.74 2.678 1.282a5.9 5.9 0 0 1 1.733 2.001c.4.774.603 1.627.603 2.534h-5.73c0-.508-.198-.907-.617-1.262-.445-.37-1.166-.552-2.149-.552-.924 0-1.61.152-2.045.458-.38.266-.553.557-.553.912q0 .25.103.463.09.186.366.365c.227.148.558.29.983.419.449.138 1.037.261 1.739.36 1.091.177 2.119.409 3.052.685.964.286 1.813.666 2.52 1.119.736.478 1.323 1.065 1.743 1.75.43.705.652 1.548.652 2.499 0 .882-.217 1.705-.642 2.45-.42.734-1.017 1.37-1.778 1.898-.741.512-1.645.916-2.687 1.197-1.028.276-2.179.42-3.433.42-1.388 0-2.633-.188-3.71-.553-1.077-.37-2-.858-2.736-1.459-.751-.611-1.324-1.316-1.715-2.1-.39-.788-.592-1.597-.592-2.405zM168.72 67.53l5.987-10.36-11.983-20.728H150.74z"/><path d="m162.729 57.17 5.986 10.362h-11.978L150.74 57.17z"/><path d="M144.748 46.804h11.983l-11.978 20.727-5.997-10.36z"/></g><defs><clipPath id="clip0"><path fill="#fff" d="M138.588 36h141.474v32H138.588z"/></clipPath></defs></svg>